<svg xmlns="http://www.w3.org/2000/svg" style="display:none">
  <symbol id="icon-signal" viewBox="0 0 24 24">
    <path d="M5 18h2v-4H5v4Zm4 0h2v-7H9v7Zm4 0h2v-10h-2v10Zm4 0h2v-13h-2v13Z" fill="currentColor" stroke="none"/>
  </symbol>

  <symbol id="icon-wifi" viewBox="0 0 24 24">
    <path d="M2 8c6.2-5.3 13.8-5.3 20 0" stroke="currentColor" stroke-linecap="round"/>
    <path d="M5 12c4.4-3.7 9.6-3.7 14 0" stroke="currentColor" stroke-linecap="round"/>
    <path d="M8.5 16c2.2-1.8 4.8-1.8 7 0" stroke="currentColor" stroke-linecap="round"/>
    <circle cx="12" cy="19" r="1.2" fill="currentColor" stroke="none"/>
  </symbol>

  <symbol id="icon-battery" viewBox="0 0 28 16">
    <rect x="1" y="1" width="23" height="14" rx="3" stroke="currentColor"/>
    <rect x="25" y="5" width="2" height="6" rx="1" fill="currentColor" stroke="none"/>
    <rect x="3" y="3" width="19" height="10" rx="2" fill="currentColor" stroke="none"/>
  </symbol>

  <symbol id="icon-crown" viewBox="0 0 24 24">
    <path d="M4 18h16L18.4 8 14 12l-2-6-2 6-4.4-4L4 18Z" fill="currentColor" stroke="none"/>
    <path d="M7 20h10" stroke="currentColor" stroke-linecap="round"/>
  </symbol>

  <symbol id="icon-camera" viewBox="0 0 24 24">
    <rect x="3" y="6" width="18" height="14" rx="3"/>
    <circle cx="12" cy="13" r="3"/>
    <path d="M8 6 9 4h6l1 2" stroke-linecap="round"/>
  </symbol>

  <symbol id="icon-gallery" viewBox="0 0 24 24">
    <rect x="3" y="4" width="18" height="16" rx="3"/>
    <circle cx="8" cy="10" r="2" fill="currentColor" stroke="none"/>
    <path d="M5 17l5-5 4 4 3-3 4 4"/>
  </symbol>

  <symbol id="icon-chevron-right" viewBox="0 0 24 24">
    <path d="m9 6 6 6-6 6" stroke-linecap="round" stroke-linejoin="round"/>
  </symbol>

  <symbol id="icon-arrow-left" viewBox="0 0 24 24">
    <path d="m15 5-7 7 7 7" stroke-linecap="round" stroke-linejoin="round"/>
  </symbol>

  <symbol id="icon-edit" viewBox="0 0 24 24">
    <path d="M4 20h4l10-10a1.5 1.5 0 0 0 0-2.1l-1.9-1.9a1.5 1.5 0 0 0-2.1 0L4 16v4Z"/>
    <path d="m12.5 7.5 4 4"/>
  </symbol>

  <symbol id="icon-sparkle" viewBox="0 0 24 24">
    <path d="M10 2l1.9 6.1L18 10l-6.1 1.9L10 18l-1.9-6.1L2 10l6.1-1.9L10 2Z" fill="currentColor" stroke="none"/>
    <path d="M18.5 4l.8 2.2 2.2.8-2.2.8-.8 2.2-.8-2.2-2.2-.8 2.2-.8.8-2.2Z" fill="currentColor" stroke="none" opacity=".65"/>
  </symbol>

  <symbol id="icon-bell" viewBox="0 0 24 24">
    <path d="M7 9a5 5 0 0 1 10 0v3.5c0 .9.4 1.8 1 2.4l1 1H5l1-1c.6-.6 1-1.5 1-2.4V9Z"/>
    <path d="M10 18c.4 1.2 1.1 2 2 2s1.6-.8 2-2" stroke-linecap="round"/>
  </symbol>

  <symbol id="icon-flame" viewBox="0 0 24 24">
    <path d="M12 3c1.8 3.1-2.3 4.8.2 8.1.9 1.1 2.6 1.2 3.6.2 1.1-1.1 1.4-2.9.9-4.4 2.8 1.9 4.3 5.3 3.5 8.7-.9 3.6-4.4 5.9-8.1 5.4-3.5-.5-6.4-3.4-6.9-6.9-.4-2.7.7-5.3 2.9-7 0 1.9 1.4 3.4 3.3 3.4 1.3 0 2.4-.8 2.8-2 .7-1.8-.4-3.8-2.2-5.5Z" fill="currentColor" stroke="none"/>
  </symbol>

  <symbol id="icon-home" viewBox="0 0 24 24">
    <path d="M3 10.5 12 3l9 7.5V20a1 1 0 0 1-1 1H4a1 1 0 0 1-1-1v-9.5Z"/>
    <path d="M9 21v-8h6v8"/>
  </symbol>

  <symbol id="icon-studio" viewBox="0 0 24 24">
    <rect x="4" y="4" width="7" height="7" rx="1.8"/>
    <rect x="13" y="4" width="7" height="7" rx="1.8"/>
    <rect x="4" y="13" width="7" height="7" rx="1.8"/>
    <rect x="13" y="13" width="7" height="7" rx="1.8"/>
  </symbol>

  <symbol id="icon-template" viewBox="0 0 24 24">
    <rect x="5" y="4" width="14" height="16" rx="2"/>
    <path d="M8 8h8M8 12h8" stroke-linecap="round"/>
  </symbol>

  <symbol id="icon-clock" viewBox="0 0 24 24">
    <circle cx="12" cy="12" r="9"/>
    <path d="M12 7v5l3 2" stroke-linecap="round" stroke-linejoin="round"/>
  </symbol>

  <symbol id="icon-user" viewBox="0 0 24 24">
    <circle cx="12" cy="8" r="4"/>
    <path d="M4.5 20c1.1-3.3 3.9-5 7.5-5s6.4 1.7 7.5 5" stroke-linecap="round"/>
  </symbol>
</svg>
